<?xml version="1.0" encoding="utf-8"?>
<!-- Generator: Adobe Illustrator 26.0.2, SVG Export Plug-In . SVG Version: 6.00 Build 0)  -->
<svg version="1.1" xmlns="http://www.w3.org/2000/svg" xmlns:xlink="http://www.w3.org/1999/xlink" x="0px" y="0px"
	 viewBox="0 0 1000 313.6" style="enable-background:new 0 0 1000 313.6;" xml:space="preserve">
<style type="text/css">
	.st0{fill:#A2BF93;stroke:#9EAA97;stroke-width:6;stroke-miterlimit:10;}
	.st1{fill:#A2BF93;stroke:#C4D4BB;stroke-width:3;stroke-miterlimit:10;}
	.st2{display:none;}
	.st3{display:inline;}
	.st4{fill:none;stroke:#9EAA97;stroke-width:3;stroke-miterlimit:10;}
	.st5{fill:none;stroke:#9EAA97;stroke-width:6;stroke-miterlimit:10;}
	.st6{fill:#A2BF93;stroke:#A2BF93;stroke-width:4;stroke-miterlimit:10;}
	.st7{fill:none;stroke:#C4D4BB;stroke-width:3;stroke-miterlimit:10;}
	.st8{fill:#A2BF93;stroke:#9EAA97;stroke-width:2;stroke-miterlimit:10;}
	.st9{fill:#A2BF93;stroke:#C4D5BC;stroke-width:2;stroke-miterlimit:10;}
</style>
<g id="Layer_1">
	<path class="st0" d="M126.4,90.3c40.8,0,55.6,18.6,55.6,37.2v73.6c0,18.8-14.8,37.2-55.6,37.2H70.8v-148L126.4,90.3z M106.7,208.9
		h19.7c10.6,0,19.7-4,19.7-14.2v-60.8c0-9.9-9.1-14.2-19.7-14.2h-19.7L106.7,208.9z"/>
	<path class="st1" d="M121.8,84.7c40.8,0,55.6,18.6,55.6,37.2v73.6c0,18.8-14.8,37.2-55.6,37.2H66.2v-148L121.8,84.7z M102.1,203.3
		h19.7c10.6,0,19.7-4,19.7-14.2v-60.8c0-9.9-9.1-14.2-19.7-14.2h-19.7L102.1,203.3z"/>
	<path class="st0" d="M300.2,165.9v40.2c0,16.7-13.5,33.4-50.1,33.4c-36.4,0-50.1-16.7-50.1-33.4v-40.2c0-16.5,13.7-33.4,50.1-33.4
		C286.7,132.5,300.2,149.4,300.2,165.9z M265.6,171.2c0-7.6-5.9-10.8-15.4-10.8c-9.5,0-15.2,3.2-15.2,10.8V201
		c0,7.6,5.7,10.8,15.2,10.8c9.5,0,15.4-3.2,15.4-10.8V171.2z"/>
	<path class="st1" d="M296.6,161.4v40.2c0,16.7-13.5,33.4-50.1,33.4c-36.4,0-50.1-16.7-50.1-33.4v-40.2c0-16.5,13.7-33.4,50.1-33.4
		C283.1,128,296.6,144.9,296.6,161.4z M262,166.7c0-7.6-5.9-10.8-15.4-10.8s-15.2,3.2-15.2,10.8v29.8c0,7.6,5.7,10.8,15.2,10.8
		s15.4-3.2,15.4-10.8V166.7z"/>
	<path class="st0" d="M351.2,87h35.1v30h-35.1V87z M351.2,136.5h35.1V239h-35.1V136.5z"/>
	<path class="st1" d="M347.7,82.6h35.1v30h-35.1V82.6z M347.7,132.1h35.1v102.5h-35.1V132.1z"/>
	<path class="st0" d="M402.7,101.6h35.1v32.8h21.8v27.3h-21.8v34.2c0.6,19,8.9,16.7,24.1,15.4v26c-25.6,4.4-60.5,1.5-59.2-41.9
		L402.7,101.6z"/>
	<path class="st1" d="M398,98h35.1v32.8h21.8V158h-21.8v34.2c0.6,19,8.9,16.7,24.1,15.4v26c-25.6,4.4-60.5,1.5-59.2-41.9L398,98z"/>
	<path class="st0" d="M674,182.5v54.8h-35.3V177c-0.2-7.2,1.5-22.4-21.8-11.6c-2.3,1.1-4.9,2.3-7.6,3.6v68.3h-34.8V134.7h32.8
		l2.1,8.2c6.8-4,14.1-6.9,21.8-8.7C671.5,125.6,674,152.1,674,182.5z"/>
	<path class="st1" d="M669.2,176.6v54.8h-35.3v-60.2c-0.2-7.2,1.5-22.4-21.8-11.6c-2.3,1.1-4.9,2.3-7.6,3.6v68.3h-34.8V128.8h32.8
		l2.1,8.2c6.8-4,14.1-6.9,21.8-8.7C666.7,119.7,669.2,146.1,669.2,176.6z"/>
	<path class="st0" d="M519.9,86.6H555v30h-35.1V86.6z M519.9,136.1H555v102.6h-35.1V136.1z"/>
	<path class="st1" d="M515.5,82.1h35.1v30h-35.1V82.1z M515.5,131.6h35.1v102.6h-35.1V131.6z"/>
	<g id="C_med_00000026863173080681769560000002442918708841188227_">
		<g id="Layer_8_00000104703522076558532660000015594316079211000728_">
			<g id="Layer_2_00000119104629705961449360000001133986342015223727_">
				<g id="C_med_00000047773676347422424870000009740853400526616486_" class="st2">
					<g id="Layer_8_00000078003320369617339150000014015626425713940614_" class="st3">
						<path class="st4" d="M823.9,190.2c-16.5,26.8-61.8,23.9-69.7-17.1c-7-51.7,47-62.5,68.1-38.8l29.9-24.7
							c-50-47-141.4-20.4-139.8,59.1c5.3,81.6,109.9,94.4,145.4,45.1L823.9,190.2z"/>
					</g>
				</g>
				<g id="C_med">
					<g id="Layer_8">
						<path class="st0" d="M821.6,127.6c-3.3-3.8-7.5-6.8-12.1-8.7c-5.3-2.1-11-3.1-16.7-3c-6-0.1-12,1.1-17.6,3.4
							c-5.3,2.2-10,5.5-14,9.6c-4,4.2-7.2,9.2-9.2,14.6c-4.4,11.9-4.4,25,0,36.9c2.1,5.4,5.2,10.3,9.1,14.6c7.9,8.4,19,13.2,30.6,13
							c6.3,0.1,12.6-1.2,18.3-4c5.2-2.7,9.7-6.6,13.1-11.4l27.9,19.6c-6.3,8.4-14.8,14.9-24.5,18.8c-9.7,4-20,6-30.5,6
							c-11.2,0.1-22.3-1.6-32.9-5.2c-9.6-3.2-18.4-8.4-26-15.1c-7.3-6.6-13.2-14.7-17.1-23.7c-8.2-19.9-8.2-42.3,0-62.2
							c3.9-9.1,9.7-17.2,17.1-23.7c7.6-6.7,16.4-11.9,26-15.1c10.6-3.6,21.7-5.4,32.9-5.2c4.5,0,9,0.4,13.4,1.1
							c4.7,0.7,9.3,1.9,13.7,3.5c4.6,1.7,9,3.8,13.1,6.5c4.2,2.7,8,6.1,11.2,9.9L821.6,127.6z"/>
						<path class="st5" d="M822.9,188.8c-16.1,26.8-63.2,21.8-70.9-19.3c-6.8-51.7,49.2-62.3,69.8-38.6l29.2-22.7
							c-48.7-47-141.4-22.4-139.8,57.1c3.2,82.7,109.5,92.3,142.8,47.2L822.9,188.8z"/>
					</g>
				</g>
			</g>
			<path class="st6" d="M820,122c-3.3-3.8-7.5-6.8-12.1-8.7c-5.3-2.1-11-3.1-16.7-3c-6-0.1-12,1.1-17.6,3.4c-5.3,2.2-10,5.5-14,9.6
				c-4,4.2-7.2,9.2-9.2,14.6c-4.4,11.9-4.4,25,0,36.9c2.1,5.4,5.2,10.3,9.1,14.6c7.9,8.4,19,13.2,30.6,13c6.3,0.1,12.6-1.2,18.3-4
				c5.2-2.7,9.7-6.6,13.1-11.4l27.9,19.6c-6.3,8.4-14.8,14.9-24.5,18.8c-9.7,4-20,6-30.5,6c-11.2,0.1-22.3-1.6-32.9-5.2
				c-9.6-3.2-18.4-8.4-26-15.1c-7.3-6.6-13.2-14.7-17.1-23.7c-8.2-19.9-8.2-42.3,0-62.2c3.9-9.1,9.7-17.2,17.1-23.7
				c7.6-6.7,16.4-11.9,26-15.1c10.6-3.6,21.7-5.4,32.9-5.2c4.5,0,9,0.4,13.4,1.1c4.7,0.7,9.3,1.9,13.7,3.5c4.6,1.7,9,3.8,13.1,6.5
				c4.2,2.7,8,6.1,11.2,9.9L820,122z"/>
			<path class="st7" d="M821.3,183.2c-16.1,26.8-63.2,21.8-70.9-19.3c-6.8-51.7,49.2-62.3,69.8-38.6l29.2-22.7
				C800.7,55.5,708,80,709.6,159.5c3.2,82.7,109.5,92.3,142.8,47.2L821.3,183.2z"/>
		</g>
	</g>
</g>
<g id="Layer_2">
	<path class="st8" d="M930.1,110.6V89H941v21.6h23.4v10H941v21.6h-10.9v-21.6h-23.4v-10H930.1z"/>
	<path class="st9" d="M928.1,107.4V85.9h10.9v21.6h23.4v10h-23.4V139h-10.9v-21.6h-23.4v-10H928.1z"/>
</g>
<g id="Layer_3">
	<path class="st8" d="M876.6,140.7v-21.6h10.9v21.6h23.4v10h-23.4v21.6h-10.9v-21.6h-23.4v-10H876.6z"/>
	<path class="st9" d="M874.6,137.6V116h10.9v21.6h23.4v10h-23.4v21.6h-10.9v-21.6h-23.4v-10H874.6z"/>
</g>
</svg>
